PathFileType	4	(X/Y/Z)	15_coords_data.trc
DataRate	CameraRate	NumFrames	NumMarkers	Units	OrigDataRate	OrigDataStartFrame	OrigNumFrames
30.0	30.0	8	21	m	30.0	10	68
Frame#	Time	THUMB_TIP	THUMB_IP	THUMB_MCP	THUMB_CMC	INDEX_TIP	INDEX_DIP	INDEX_PIP	INDEX_MCP	MIDDLE_TIP	MIDDLE_DIP	MIDDLE_PIP	MIDDLE_MCP	RING_TIP	RING_DIP	RING_PIP	RING_MCP	PINKY_TIP	PINKY_DIP	PINKY_PIP	PINKY_MCP	WRIST
X1	Y1	Z1	X2	Y2	Z2	X3	Y3	Z3	X4	Y4	Z4	X5	Y5	Z5	X6	Y6	Z6	X7	Y7	Z7	X8	Y8	Z8	X9	Y9	Z9	X10	Y10	Z10	X11	Y11	Z11	X12	Y12	Z12	X13	Y13	Z13	X14	Y14	Z14	X15	Y15	Z15	X16	Y16	Z16	X17	Y17	Z17	X18	Y18	Z18	X19	Y19	Z19	X20	Y20	Z20	X21	Y21	Z21
8	0.2999999999999987	0.5347961988965066	-0.012647580373223666	-0.1472954236073353	0.5177363537573402	-0.01361657058042487	-0.13193239194668954	0.4907175037238777	-0.020402028957651308	-0.11804861373324235	0.47722705166327184	-0.027178523111111574	-0.07607270599810675	0.5630060818502948	0.007688166177714395	-0.14806830444681957	0.5484201839731422	0.018018734409797066	-0.14514752661898705	0.5263785537983819	0.02733619198910142	-0.1374428944735199	0.4889536750790896	0.023435137074769963	-0.11749806262660692	0.5761326658176549	0.003580250534443108	-0.13272728786384294	0.5630316152869078	0.014526340591594966	-0.12668199321002105	0.5399962980474557	0.02913384041581879	-0.11641531611550254	0.5005066809735479	0.033935144089580316	-0.0960765465512334	0.5780793443223413	-0.002565670280162524	-0.11242994514728735	0.5669343443852204	0.00960233054008508	-0.10516848989093314	0.5495492048136877	0.024012030537971296	-0.09466623075066974	0.5140742378550418	0.0325853115422976	-0.07726662138425439	0.5814553849963371	-0.007172005000402271	-0.08695174564458952	0.5698176173479642	0.0030898923115836308	-0.07972292639655587	0.5534965200914934	0.01324267005601465	-0.07127574299514877	0.520530498183323	0.021807926134368882	-0.05941145882532839	0.462283081001861	-0.023011742144276925	-0.05198982011943096
9	0.33333333333333187	0.5348645110425634	-0.012644258665280628	-0.1472139589406078	0.5177629925848212	-0.013588107611775424	-0.13189576010374354	0.49072830397536693	-0.02039188399295644	-0.11805183584995185	0.4772191113558466	-0.02716067286767232	-0.07608071230127583	0.5630328028127467	0.007632217233686789	-0.14803826533937664	0.5484678583040076	0.017990834000880418	-0.1451122697604733	0.5264363053645241	0.027324173957398612	-0.13739804437286626	0.48900822410801803	0.02347189303905517	-0.1174497422099614	0.5761402153047075	0.0034981840138607057	-0.13270762824647686	0.563045217868084	0.014445856984672933	-0.12665209369872873	0.5400538850231742	0.029111940510503587	-0.11637035464213277	0.5005698227465337	0.0339323599790925	-0.09602532322703725	0.5780886319889321	-0.002675544538126684	-0.11243173330972728	0.5669650437209527	0.009504899019964541	-0.10515831741534659	0.5496063186490824	0.023933873380826864	-0.09463884300961714	0.5141449607017519	0.03253758332660628	-0.0772265168669044	0.5814524684293333	-0.007329050655729974	-0.08697709820568514	0.5698368579472217	0.0029493421300046396	-0.07973608758077821	0.5535363942197508	0.01311943141812666	-0.07126990868230026	0.520587371017031	0.021736491733747365	-0.05939592062000257	0.4622830810018608	-0.023011742144276925	-0.051989820119430985
10	0.3666666666666651	0.5348563316482207	-0.012509857941442437	-0.14722195290058102	0.5177332477846074	-0.013489273101093713	-0.13193010066009972	0.49071071875964434	-0.020306338117551448	-0.1180689841950951	0.47719277184596187	-0.027108102452902405	-0.07610601107395878	0.5630144041229047	0.007626008298319498	-0.14798332228543043	0.5484673222508556	0.018004622429210748	-0.14503938313355247	0.5264540203792758	0.027380288341326997	-0.1373243807087255	0.4890210560344569	0.02356528623549836	-0.11737807695860569	0.5760998146819031	0.0034202905924902716	-0.1326641917739731	0.5630192116438621	0.014378138451585087	-0.1265959634939785	0.5400700306520261	0.029103586244945245	-0.11630490771291421	0.5005940091519828	0.03397020803518458	-0.09595527282973029	0.5780447005417118	-0.0027488358413044756	-0.11242087400151504	0.5669440616575582	0.009443889481593915	-0.10513298915308544	0.5496069374435	0.02388242694821352	-0.09459103777720909	0.5141693892205438	0.0325451688683166	-0.07715951712147323	0.5814093877363203	-0.007424672640646279	-0.08699962009971918	0.5698152686722161	0.002866470993846515	-0.07974229512273137	0.5535381683487768	0.013056719063737954	-0.07125543066435991	0.520607103865763	0.021716281387687997	-0.05936255786704073	0.4622830810018609	-0.023011742144276925	-0.05198982011943096
11	0.39999999999999825	0.5347470273159811	-0.012380702172434033	-0.1472908670483251	0.5176212017260917	-0.013366094285759633	-0.1320024694786748	0.49063592870408135	-0.020251697776962674	-0.1181027031320957	0.4771645354563647	-0.02707736691224938	-0.07612864203692685	0.5630013355019422	0.007636420750817385	-0.1479556422616455	0.5484814949195052	0.018049044348446897	-0.1449973489572718	0.5264782428930296	0.02742896728934263	-0.13725888794216923	0.48904120255730077	0.023642427781809694	-0.11731481053911763	0.5760707297872353	0.0033190231283278804	-0.13264112042362847	0.5630102482459204	0.014295654049685025	-0.12656350612809444	0.540104424334371	0.0290765787831343	-0.1162554003390954	0.5006348880270158	0.033983180173015604	-0.0959027865638773	0.5779920866389915	-0.002845851891328466	-0.11244245740588688	0.5669305160053166	0.009369379892744556	-0.10513289055294697	0.549620748040785	0.02382495402107443	-0.09456935475121692	0.5142057384140856	0.03253180156557722	-0.0771140193783981	0.581360653176973	-0.007571880530771291	-0.08705136950809533	0.5697941315691205	0.002735954615625369	-0.07977372480051412	0.5535388968695051	0.012945376552296328	-0.07126801685940512	0.5206334566903245	0.02168219808496985	-0.0593607330750745	0.4622830810018609	-0.023011742144276925	-0.051989820119430985
12	0.43333333333333146	0.5346082519050013	-0.012171117942537446	-0.14741561347852172	0.5174951485902651	-0.013238577003137797	-0.13211848217578706	0.4905699971045666	-0.020190186554942202	-0.11813522997497716	0.47714176679773	-0.027032876507425252	-0.07615011088450963	0.5629637434699374	0.007650747443306516	-0.14795378690089148	0.548461619952863	0.018079080397579994	-0.1449640903794476	0.5264745765245749	0.027482981039818388	-0.13720867891431676	0.48903877588211175	0.023724772997965382	-0.11725691717325962	0.5760163447298359	0.003244507635636107	-0.1326612348373774	0.5629790990882252	0.014238523108632717	-0.1265651828477851	0.5400936731750808	0.0290355202152891	-0.1162348533564479	0.5006526015567098	0.03401575912220456	-0.09584497814779172	0.5779291869141775	-0.0029211566912796805	-0.11248434357198633	0.5668866105932278	0.009300224647232125	-0.10515635978552224	0.5495990363397348	0.023764896754949527	-0.09456896084875807	0.5142159680214865	0.03253693057470752	-0.07708151583665901	0.5812926270547387	-0.007685388019525674	-0.08712870877979234	0.5697527465994596	0.0026367277317045357	-0.07982904539741151	0.5535184128240928	0.012861833191631034	-0.07130228492209836	0.5206392907557825	0.02167200029930305	-0.05937635776518274	0.4622830810018609	-0.023011742144276925	-0.05198982011943101
13	0.4666666666666647	0.5344382979983224	-0.011916805112055173	-0.14754956338607578	0.5173500101010193	-0.013071953366022404	-0.13223107621369992	0.49048725300252305	-0.020113161650509026	-0.11817285203844707	0.47710581133916197	-0.026992749119144732	-0.07617882513852409	0.5628983876777858	0.007653741753648635	-0.14797411884505418	0.5484098928247202	0.018094191887865874	-0.1449607290780947	0.5264438234630702	0.027527251288116283	-0.1371813319195403	0.4890110474763011	0.02379295520554159	-0.11721940794683577	0.5759523511196212	0.003192179091056957	-0.1327036997326225	0.562926095418193	0.014185167365042606	-0.1265823541935253	0.5400757505444486	0.02901922119537692	-0.11622754197361077	0.5006565463861842	0.034042995520729424	-0.09580608374808233	0.5778552700998846	-0.0029825114717603185	-0.11254448734720437	0.5668458974150766	0.009256010552137206	-0.10519518181827273	0.549578313491897	0.023727591238610013	-0.09458462684264335	0.5142244104307857	0.032539520683407486	-0.07705829602853786	0.5812379763209164	-0.007786995691907994	-0.08720919233543736	0.569722336494251	0.002550958720636265	-0.07989367882327222	0.5535044496975197	0.012783401464837363	-0.07134445182107763	0.5206529562150125	0.021652530092932887	-0.05938613319565672	0.462283081001861	-0.023011742144276925	-0.05198982011943096
14	0.4999999999999978	0.5343067686007221	-0.011577240216272378	-0.14764740986135344	0.5172401904742103	-0.012817023267627015	-0.13231134618656248	0.49043833537163495	-0.019958924485492746	-0.11818782643917652	0.4770971490485162	-0.02692479294384087	-0.07619521489722997	0.5628465792825954	0.007676299093974492	-0.14795356146440167	0.5483683966992635	0.01812468353185026	-0.1449181880570493	0.5264240359485778	0.027597276721288755	-0.13712557344376533	0.488993432852748	0.023894392991094526	-0.1171537258085783	0.5758844763891924	0.0031604684778265835	-0.13271068443478637	0.5628805966042948	0.014167122399006082	-0.12656636347968328	0.5400495817348998	0.02901939745762616	-0.11619504554913307	0.500656903077454	0.03409674834819365	-0.0957356883469804	0.5777572340218489	-0.0030288434284282406	-0.11256653766922126	0.56678880169583	0.009236117580201486	-0.10520011222899983	0.5495390500924734	0.023711104125618387	-0.09456522562252889	0.5142137708071038	0.03257287909169282	-0.07700634120861166	0.5811710279174881	-0.007851779047202023	-0.08726808480365336	0.5696800180125265	0.0025055512078051567	-0.07994125729423379	0.5534655568081567	0.012733122892158888	-0.07137971279026781	0.5206479662274667	0.021661327721965273	-0.059372366788955855	0.4622830810018609	-0.023011742144276925	-0.05198982011943101
15	0.533333333333331	0.5341685695748897	-0.011201168613494294	-0.14772776235505047	0.5171387232814849	-0.012565866572149642	-0.13236150273519992	0.49039325388980015	-0.019818623598820584	-0.1181876753575814	0.4770711934549571	-0.026920491900724097	-0.0762117754578436	0.56275888605606	0.007606284310943345	-0.1479343246391072	0.5482920203173133	0.018067670592344376	-0.144889789737289	0.5263816284939172	0.027618169603568332	-0.13709668177050993	0.4889440138851442	0.023954352587931327	-0.1171307720421525	0.5757926776734477	0.0031068189716073613	-0.13274672844669294	0.5628091339650748	0.014126647994425645	-0.12658304764050077	0.5399925639301091	0.02899831987510504	-0.11620773765414769	0.5006246928464206	0.034134041044761476	-0.09571522645113414	0.5776805731447228	-0.0030408123991793046	-0.11261587167610515	0.5667371698586804	0.009239293562627204	-0.10523746249215216	0.5495003712645915	0.023721412610998582	-0.09459129035867525	0.514193914828708	0.03259421082029257	-0.07700014429373056	0.5811128066562585	-0.007887689746905457	-0.08733586140898453	0.5696421241448159	0.0024870345352185907	-0.0800017944068645	0.5534295728463579	0.012713367474421755	-0.07143515480831486	0.5206387075545673	0.021672501053479176	-0.05937793581186904	0.4622830810018609	-0.023011742144276925	-0.051989820119430985
